<svg width="28" height="32" viewBox="0 0 28 32" fill="none" xmlns="http://www.w3.org/2000/svg">
<path fill-rule="evenodd" clip-rule="evenodd" d="M27.3334 0H0.666748V32H19.3334L27.3334 24V0ZM19.3334 24H25.1467L19.3334 29.8467V24ZM15.3334 25.3333H4.66675V26.6667H15.3334V25.3333ZM15.3334 21.3333H4.66675V22.6667H15.3334V21.3333ZM23.3334 18.6667V17.3333H4.66675V18.6667H23.3334ZM13.9214 12.0427C12.3921 11.6893 10.9694 11.38 11.6587 10.0787C13.7561 6.11867 12.2147 4 10.0001 4C7.74141 4 6.23875 6.2 8.34141 10.0787C9.05075 11.388 7.57475 11.6973 6.07875 12.0427C4.71341 12.3587 4.66275 13.036 4.66675 14.2227L4.66808 14.6667H15.3307L15.3321 14.236C15.3374 13.0413 15.2921 12.36 13.9214 12.0427ZM23.3334 13.3333H18.0001V14.6667H23.3334V13.3333ZM23.3334 10.6667V9.33333H18.0001V10.6667H23.3334ZM23.3334 5.33333H18.0001V6.66667H23.3334V5.33333Z" fill="url(#paint0_linear_4006_391)"/>
<defs>
<linearGradient id="paint0_linear_4006_391" x1="27" y1="-1.66389e-08" x2="0.999999" y2="32" gradientUnits="userSpaceOnUse">
<stop stop-color="#E7E7E7"/>
<stop offset="1" stop-color="#DFE2F5"/>
</linearGradient>
</defs>
</svg>
