<svg width="100" height="100" viewBox="0 0 100 100" fill="none" xmlns="http://www.w3.org/2000/svg">
<rect width="100" height="100" fill="#FFA500"/>
<mask id="mask0_2002_2062" style="mask-type:luminance" maskUnits="userSpaceOnUse" x="28" y="18" width="50" height="69">
<path d="M77.0962 87V18H28V87H77.0962Z" fill="white"/>
</mask>
<g mask="url(#mask0_2002_2062)">
<path d="M40.0708 23.2557C39.3386 23.2244 38.7433 23.8215 38.7433 24.5544V80.446C38.7433 81.1787 39.3385 81.7758 40.0707 81.7444C55.6518 81.0743 68.3182 68.6665 68.6009 53.0321C68.915 55.0385 70.6689 56.5793 72.8048 56.5793C75.1626 56.5793 77.0741 54.7071 77.0741 52.3975C77.0741 50.088 75.1626 48.2157 72.8048 48.2157C70.6427 48.2157 68.8749 49.7956 68.5932 51.8379C68.235 36.4169 55.739 23.9268 40.0708 23.2557Z" fill="#481A00"/>
<path d="M34.4402 83.929V21.071C34.4402 19.9162 33.4845 18.9801 32.3056 18.9801H30.1573C28.9783 18.9801 28.0226 19.9162 28.0226 21.071V83.929C28.0226 85.0837 28.9783 86.0199 30.1573 86.0199H32.3056C33.4845 86.0199 34.4402 85.0837 34.4402 83.929Z" fill="#481A00"/>
</g>
</svg>
