<svg width="25" height="24" viewBox="0 0 25 24" fill="none" xmlns="http://www.w3.org/2000/svg">
<path d="M17.1799 13.1143L22.7857 9.49714C23.004 9.36471 23.19 9.18518 23.3301 8.97165C23.4701 8.75813 23.5607 8.51601 23.5952 8.26299C23.6297 8.00996 23.6073 7.75243 23.5295 7.5092C23.4517 7.26597 23.3206 7.04319 23.1457 6.85714L17.6428 1.35428C17.4567 1.17936 17.234 1.04822 16.9907 0.970438C16.7475 0.892654 16.49 0.870194 16.2369 0.904697C15.9839 0.9392 15.7418 1.0298 15.5283 1.16986C15.3148 1.30993 15.1352 1.49593 15.0028 1.71428L11.2999 7.25142L3.6028 8.96571C3.42678 9.00842 3.26516 9.09685 3.13429 9.22207C3.00341 9.34728 2.90792 9.50483 2.85747 9.67879C2.80703 9.85275 2.80341 10.0369 2.84699 10.2128C2.89057 10.3886 2.9798 10.5497 3.10566 10.68L13.6485 21.24C13.782 21.3608 13.9443 21.445 14.1199 21.4847C14.2955 21.5243 14.4783 21.518 14.6507 21.4663C14.8231 21.4145 14.9792 21.3192 15.104 21.1895C15.2287 21.0597 15.3179 20.9 15.3628 20.7257L17.1799 13.1143Z" fill="#C2EE00" stroke="black" stroke-opacity="0.7" stroke-linecap="round" stroke-linejoin="round"/>
<path d="M8.36855 16.08L1.35712 23.1428" stroke="black" stroke-opacity="0.7" stroke-linecap="round" stroke-linejoin="round"/>
</svg>
