<svg xmlns="http://www.w3.org/2000/svg" viewBox="0 0 1000 543">
        <g transform="translate(-8.42 -1.84)">
          <g transform="translate(0 0)">
            <path
              d="M 354.28 203.622 C 354.28 202.438 355.239 201.479 356.423 201.479 C 357.606 201.479 358.566 202.438 358.566 203.622 C 358.566 204.806 357.606 205.766 356.423 205.766 C 355.239 205.766 354.28 204.806 354.28 203.622 Z"
              fill="rgba(255,255,255,0.2)"
            />
            <path
              d="M 192.207 144.672 C 192.207 143.489 193.167 142.529 194.35 142.529 C 195.533 142.529 196.493 143.489 196.493 144.672 C 196.493 145.856 195.533 146.816 194.35 146.816 C 193.167 146.816 192.207 145.856 192.207 144.672 Z"
              fill="rgba(255,255,255,0.2)"
            />
            <path
              d="M 560.55 98.353 C 560.55 97.169 561.509 96.21 562.693 96.21 C 563.876 96.21 564.836 97.169 564.836 98.353 C 564.836 99.537 563.876 100.496 562.693 100.496 C 561.509 100.496 560.55 99.537 560.55 98.353 Z"
              fill="rgba(255,255,255,0.2)"
            />
            <path
              d="M 299.553 49.93 C 299.553 48.747 300.512 47.787 301.696 47.787 C 302.879 47.787 303.839 48.747 303.839 49.93 C 303.839 51.114 302.879 52.074 301.696 52.074 C 300.512 52.074 299.553 51.114 299.553 49.93 Z"
              fill="rgba(255,255,255,0.2)"
            />
            <path
              d="M 280.61 357.314 C 280.61 356.13 281.569 355.171 282.753 355.171 C 283.936 355.171 284.896 356.13 284.896 357.314 C 284.896 358.498 283.936 359.457 282.753 359.457 C 281.569 359.457 280.61 358.498 280.61 357.314 Z"
              fill="rgba(255,255,255,0.2)"
            />
            <path
              d="M 156.426 186.779 C 156.426 185.595 157.385 184.636 158.569 184.636 C 159.752 184.636 160.711 185.595 160.711 186.779 C 160.711 187.963 159.752 188.923 158.569 188.923 C 157.385 188.923 156.426 187.963 156.426 186.779 Z"
              fill="rgba(255,255,255,0.2)"
            />
            <path
              d="M 472.149 127.829 C 472.149 126.646 473.108 125.686 474.291 125.686 C 475.475 125.686 476.434 126.646 476.434 127.829 C 476.434 129.013 475.475 129.973 474.291 129.973 C 473.108 129.973 472.149 129.013 472.149 127.829 Z"
              fill="rgba(255,255,255,0.2)"
            />
            <path
              d="M 539.503 376.263 C 539.503 375.079 540.462 374.12 541.646 374.12 C 542.829 374.12 543.789 375.079 543.789 376.263 C 543.789 377.447 542.829 378.407 541.646 378.407 C 540.462 378.407 539.503 377.447 539.503 376.263 Z"
              fill="rgba(255,255,255,0.2)"
            />
            <path
              d="M 356.383 319.418 C 356.383 318.235 357.342 317.275 358.526 317.275 C 359.709 317.275 360.669 318.235 360.669 319.418 C 360.669 320.602 359.709 321.562 358.526 321.562 C 357.342 321.562 356.383 320.602 356.383 319.418 Z"
              fill="rgba(255,255,255,0.2)"
            />
            <path
              d="M 425.841 28.876 C 425.841 27.692 426.801 26.733 427.984 26.733 C 429.168 26.733 430.127 27.692 430.127 28.876 C 430.127 30.06 429.168 31.02 427.984 31.02 C 426.801 31.02 425.841 30.06 425.841 28.876 Z"
              fill="rgba(255,255,255,0.2)"
            />
            <path
              d="M 815.234 47.825 C 815.234 46.642 816.194 45.682 817.377 45.682 C 818.561 45.682 819.52 46.642 819.52 47.825 C 819.52 49.009 818.561 49.969 817.377 49.969 C 816.194 49.969 815.234 49.009 815.234 47.825 Z"
              fill="rgba(255,255,255,0.2)"
            />
            <path
              d="M 663.687 205.727 C 663.687 204.543 664.647 203.584 665.83 203.584 C 667.014 203.584 667.973 204.543 667.973 205.727 C 667.973 206.911 667.014 207.87 665.83 207.87 C 664.647 207.87 663.687 206.911 663.687 205.727 Z"
              fill="rgba(255,255,255,0.2)"
            />
            <path
              d="M 398.48 283.626 C 398.48 282.442 399.439 281.483 400.623 281.483 C 401.806 281.483 402.766 282.442 402.766 283.626 C 402.766 284.81 401.806 285.77 400.623 285.77 C 399.439 285.77 398.48 284.81 398.48 283.626 Z"
              fill="rgba(255,255,255,0.2)"
            />
            <path
              d="M 15.403 62.562 C 15.403 61.378 16.362 60.419 17.546 60.419 C 18.729 60.419 19.689 61.378 19.689 62.562 C 19.689 63.746 18.729 64.706 17.546 64.706 C 16.362 64.706 15.403 63.746 15.403 62.562 Z"
              fill="rgba(255,255,255,0.2)"
            />
            <path
              d="M 169.054 26.771 C 169.054 25.588 170.014 24.628 171.197 24.628 C 172.381 24.628 173.34 25.588 173.34 26.771 C 173.34 27.955 172.381 28.915 171.197 28.915 C 170.014 28.915 169.054 27.955 169.054 26.771 Z"
              fill="rgba(255,255,255,0.2)"
            />
            <path
              d="M 682.629 60.457 C 682.629 59.274 683.588 58.314 684.771 58.314 C 685.955 58.314 686.914 59.274 686.914 60.457 C 686.914 61.641 685.955 62.601 684.771 62.601 C 683.588 62.601 682.629 61.641 682.629 60.457 Z"
              fill="rgba(255,255,255,0.2)"
            />
            <path
              d="M 596.331 24.665 C 596.331 23.481 597.291 22.522 598.474 22.522 C 599.658 22.522 600.617 23.481 600.617 24.665 C 600.617 25.849 599.658 26.808 598.474 26.808 C 597.291 26.808 596.331 25.849 596.331 24.665 Z"
              fill="rgba(255,255,255,0.2)"
            />
            <path
              d="M 440.576 241.519 C 440.576 240.335 441.535 239.376 442.719 239.376 C 443.902 239.376 444.861 240.335 444.861 241.519 C 444.861 242.703 443.902 243.663 442.719 243.663 C 441.535 243.663 440.576 242.703 440.576 241.519 Z"
              fill="rgba(255,255,255,0.2)"
            />
            <path
              d="M 301.657 113.091 C 301.657 111.907 302.617 110.948 303.8 110.948 C 304.984 110.948 305.943 111.907 305.943 113.091 C 305.943 114.275 304.984 115.235 303.8 115.235 C 302.617 115.235 301.657 114.275 301.657 113.091 Z"
              fill="rgba(255,255,255,0.2)"
            />
            <path
              d="M 358.487 22.56 C 358.487 21.376 359.447 20.417 360.63 20.417 C 361.813 20.417 362.773 21.376 362.773 22.56 C 362.773 23.744 361.813 24.704 360.63 24.704 C 359.447 24.704 358.487 23.744 358.487 22.56 Z"
              fill="rgba(255,255,255,0.2)"
            />
            <path
              d="M 579.493 176.252 C 579.493 175.068 580.452 174.109 581.636 174.109 C 582.819 174.109 583.779 175.068 583.779 176.252 C 583.779 177.436 582.819 178.396 581.636 178.396 C 580.452 178.396 579.493 177.436 579.493 176.252 Z"
              fill="rgba(255,255,255,0.2)"
            />
            <path
              d="M 505.826 374.157 C 505.826 372.973 506.785 372.014 507.969 372.014 C 509.152 372.014 510.111 372.973 510.111 374.157 C 510.111 375.341 509.152 376.3 507.969 376.3 C 506.785 376.3 505.826 375.341 505.826 374.157 Z"
              fill="rgba(255,255,255,0.2)"
            />
            <g>
              <g transform="translate(208.309 193.364)">
                <path
                  d="M 0 1.429 C 0 0.64 0.64 0 1.429 0 C 2.218 0 2.857 0.64 2.857 1.429 C 2.857 2.218 2.218 2.858 1.429 2.858 C 0.64 2.858 0 2.218 0 1.429 Z"
                  fill="rgb(255,255,255)"
                />
              </g>
              <g transform="translate(44.571 133.807)">
                <path
                  d="M 0 1.429 C 0 0.64 0.64 0 1.429 0 C 2.218 0 2.857 0.64 2.857 1.429 C 2.857 2.218 2.218 2.858 1.429 2.858 C 0.64 2.858 0 2.218 0 1.429 Z"
                  fill="rgb(255,255,255)"
                />
              </g>
              <g transform="translate(416.7 87.013)">
                <path
                  d="M 0 1.429 C 0 0.64 0.64 0 1.429 0 C 2.218 0 2.857 0.64 2.857 1.429 C 2.857 2.218 2.218 2.858 1.429 2.858 C 0.64 2.858 0 2.218 0 1.429 Z"
                  fill="rgb(255,255,255)"
                />
              </g>
              <g transform="translate(153.02 38.091)">
                <path
                  d="M 0 1.429 C 0 0.64 0.64 0 1.429 0 C 2.218 0 2.857 0.64 2.857 1.429 C 2.857 2.218 2.218 2.858 1.429 2.858 C 0.64 2.858 0 2.218 0 1.429 Z"
                  fill="rgb(255,255,255)"
                />
              </g>
              <g transform="translate(133.881 348.636)">
                <path
                  d="M 0 1.429 C 0 0.64 0.64 0 1.429 0 C 2.218 0 2.857 0.64 2.857 1.429 C 2.857 2.218 2.218 2.858 1.429 2.858 C 0.64 2.858 0 2.218 0 1.429 Z"
                  fill="rgb(255,255,255)"
                />
              </g>
              <g transform="translate(8.42 176.346)">
                <path
                  d="M 0 1.429 C 0 0.64 0.64 0 1.429 0 C 2.218 0 2.857 0.64 2.857 1.429 C 2.857 2.218 2.218 2.858 1.429 2.858 C 0.64 2.858 0 2.218 0 1.429 Z"
                  fill="rgb(255,255,255)"
                />
              </g>
              <g transform="translate(327.39 116.791)">
                <path
                  d="M 0 1.429 C 0 0.64 0.64 0 1.429 0 C 2.218 0 2.857 0.64 2.857 1.429 C 2.857 2.218 2.218 2.858 1.429 2.858 C 0.64 2.858 0 2.218 0 1.429 Z"
                  fill="rgb(255,255,255)"
                />
              </g>
              <g transform="translate(395.436 367.778)">
                <path
                  d="M 0 1.429 C 0 0.64 0.64 0 1.429 0 C 2.218 0 2.857 0.64 2.857 1.429 C 2.857 2.218 2.218 2.858 1.429 2.858 C 0.64 2.858 0 2.218 0 1.429 Z"
                  fill="rgb(255,255,255)"
                />
              </g>
              <g transform="translate(210.434 310.349)">
                <path
                  d="M 0 1.429 C 0 0.64 0.64 0 1.429 0 C 2.218 0 2.857 0.64 2.857 1.429 C 2.857 2.218 2.218 2.858 1.429 2.858 C 0.64 2.858 0 2.218 0 1.429 Z"
                  fill="rgb(255,255,255)"
                />
              </g>
              <g transform="translate(280.607 16.82)">
                <path
                  d="M 0 1.429 C 0 0.64 0.64 0 1.429 0 C 2.218 0 2.857 0.64 2.857 1.429 C 2.857 2.218 2.218 2.858 1.429 2.858 C 0.64 2.858 0 2.218 0 1.429 Z"
                  fill="rgb(255,255,255)"
                />
              </g>
              <g transform="translate(822.94 25.524)">
                <path
                  d="M 0 1.429 C 0 0.64 0.64 0 1.429 0 C 2.218 0 2.857 0.64 2.857 1.429 C 2.857 2.218 2.218 2.858 1.429 2.858 C 0.64 2.858 0 2.218 0 1.429 Z"
                  fill="rgb(255,255,255)"
                />
              </g>
              <g transform="translate(669.834 185.05)">
                <path
                  d="M 0 1.429 C 0 0.64 0.64 0 1.429 0 C 2.218 0 2.857 0.64 2.857 1.429 C 2.857 2.218 2.218 2.858 1.429 2.858 C 0.64 2.858 0 2.218 0 1.429 Z"
                  fill="rgb(255,255,255)"
                />
              </g>
              <g transform="translate(401.903 263.751)">
                <path
                  d="M 0 1.429 C 0 0.64 0.64 0 1.429 0 C 2.218 0 2.857 0.64 2.857 1.429 C 2.857 2.218 2.218 2.858 1.429 2.858 C 0.64 2.858 0 2.218 0 1.429 Z"
                  fill="rgb(255,255,255)"
                />
              </g>
              <g transform="translate(14.886 40.413)">
                <path
                  d="M 0 1.429 C 0 0.64 0.64 0 1.429 0 C 2.218 0 2.857 0.64 2.857 1.429 C 2.857 2.218 2.218 2.858 1.429 2.858 C 0.64 2.858 0 2.218 0 1.429 Z"
                  fill="rgb(255,255,255)"
                />
              </g>
              <g transform="translate(170.117 4.254)">
                <path
                  d="M 0 1.429 C 0 0.64 0.64 0 1.429 0 C 2.218 0 2.857 0.64 2.857 1.429 C 2.857 2.218 2.218 2.858 1.429 2.858 C 0.64 2.858 0 2.218 0 1.429 Z"
                  fill="rgb(255,255,255)"
                />
              </g>
              <g transform="translate(0 193.559)">
                <path
                  d="M 0 1.429 C 0 0.64 0.64 0 1.429 0 C 2.218 0 2.857 0.64 2.857 1.429 C 2.857 2.218 2.218 2.858 1.429 2.858 C 0.64 2.858 0 2.218 0 1.429 Z"
                  fill="rgb(255,255,255)"
                />
              </g>
              <g transform="translate(688.973 38.287)">
                <path
                  d="M 0 1.429 C 0 0.64 0.64 0 1.429 0 C 2.218 0 2.857 0.64 2.857 1.429 C 2.857 2.218 2.218 2.858 1.429 2.858 C 0.64 2.858 0 2.218 0 1.429 Z"
                  fill="rgb(255,255,255)"
                />
              </g>
              <g transform="translate(601.787 2.128)">
                <path
                  d="M 0 1.429 C 0 0.64 0.64 0 1.429 0 C 2.218 0 2.857 0.64 2.857 1.429 C 2.857 2.218 2.218 2.858 1.429 2.858 C 0.64 2.858 0 2.218 0 1.429 Z"
                  fill="rgb(255,255,255)"
                />
              </g>
              <g transform="translate(444.43 221.21)">
                <path
                  d="M 0 1.429 C 0 0.64 0.64 0 1.429 0 C 2.218 0 2.857 0.64 2.857 1.429 C 2.857 2.218 2.218 2.858 1.429 2.858 C 0.64 2.858 0 2.218 0 1.429 Z"
                  fill="rgb(255,255,255)"
                />
              </g>
              <g transform="translate(304.083 91.461)">
                <path
                  d="M 0 1.429 C 0 0.64 0.64 0 1.429 0 C 2.218 0 2.857 0.64 2.857 1.429 C 2.857 2.218 2.218 2.858 1.429 2.858 C 0.64 2.858 0 2.218 0 1.429 Z"
                  fill="rgb(255,255,255)"
                />
              </g>
              <g transform="translate(361.497 0)">
                <path
                  d="M 0 1.429 C 0 0.64 0.64 0 1.429 0 C 2.218 0 2.857 0.64 2.857 1.429 C 2.857 2.218 2.218 2.858 1.429 2.858 C 0.64 2.858 0 2.218 0 1.429 Z"
                  fill="rgb(255,255,255)"
                />
              </g>
              <g transform="translate(584.776 155.272)">
                <path
                  d="M 0 1.429 C 0 0.64 0.64 0 1.429 0 C 2.218 0 2.857 0.64 2.857 1.429 C 2.857 2.218 2.218 2.858 1.429 2.858 C 0.64 2.858 0 2.218 0 1.429 Z"
                  fill="rgb(255,255,255)"
                />
              </g>
              <g transform="translate(510.351 355.212)">
                <path
                  d="M 0 1.429 C 0 0.64 0.64 0 1.429 0 C 2.218 0 2.857 0.64 2.857 1.429 C 2.857 2.218 2.218 2.858 1.429 2.858 C 0.64 2.858 0 2.218 0 1.429 Z"
                  fill="rgb(255,255,255)"
                />
              </g>
            </g>
            <g transform="translate(362.03 367.237)">
              <path
                d="M 0 1.429 C 0 0.64 0.64 0 1.429 0 C 2.218 0 2.857 0.64 2.857 1.429 C 2.857 2.218 2.218 2.858 1.429 2.858 C 0.64 2.858 0 2.218 0 1.429 Z"
                fill="rgba(255,255,255,0.4)"
              />
            </g>
            <g transform="translate(199.959 308.287)">
              <path
                d="M 0 1.429 C 0 0.64 0.64 0 1.429 0 C 2.218 0 2.857 0.64 2.857 1.429 C 2.857 2.218 2.218 2.858 1.429 2.858 C 0.64 2.858 0 2.218 0 1.429 Z"
                fill="rgba(255,255,255,0.4)"
              />
            </g>
            <g transform="translate(568.301 261.967)">
              <path
                d="M 0 1.429 C 0 0.64 0.64 0 1.429 0 C 2.218 0 2.857 0.64 2.857 1.429 C 2.857 2.218 2.218 2.858 1.429 2.858 C 0.64 2.858 0 2.218 0 1.429 Z"
                fill="rgba(255,255,255,0.4)"
              />
            </g>
            <g transform="translate(307.304 213.545)">
              <path
                d="M 0 1.429 C 0 0.64 0.64 0 1.429 0 C 2.218 0 2.857 0.64 2.857 1.429 C 2.857 2.218 2.218 2.858 1.429 2.858 C 0.64 2.858 0 2.218 0 1.429 Z"
                fill="rgba(255,255,255,0.4)"
              />
            </g>
            <g transform="translate(288.361 520.928)">
              <path
                d="M 0 1.429 C 0 0.64 0.64 0 1.429 0 C 2.218 0 2.857 0.64 2.857 1.429 C 2.857 2.218 2.218 2.858 1.429 2.858 C 0.64 2.858 0 2.218 0 1.429 Z"
                fill="rgba(255,255,255,0.4)"
              />
            </g>
            <g transform="translate(164.176 350.394)">
              <path
                d="M 0 1.429 C 0 0.64 0.64 0 1.429 0 C 2.218 0 2.857 0.64 2.857 1.429 C 2.857 2.218 2.218 2.858 1.429 2.858 C 0.64 2.858 0 2.218 0 1.429 Z"
                fill="rgba(255,255,255,0.4)"
              />
            </g>
            <g transform="translate(479.9 291.444)">
              <path
                d="M 0 1.429 C 0 0.64 0.64 0 1.429 0 C 2.218 0 2.857 0.64 2.857 1.429 C 2.857 2.218 2.218 2.858 1.429 2.858 C 0.64 2.858 0 2.218 0 1.429 Z"
                fill="rgba(255,255,255,0.4)"
              />
            </g>
            <g transform="translate(547.254 539.878)">
              <path
                d="M 0 1.429 C 0 0.64 0.64 0 1.429 0 C 2.218 0 2.857 0.64 2.857 1.429 C 2.857 2.218 2.218 2.858 1.429 2.858 C 0.64 2.858 0 2.218 0 1.429 Z"
                fill="rgba(255,255,255,0.4)"
              />
            </g>
            <g transform="translate(364.134 483.033)">
              <path
                d="M 0 1.429 C 0 0.64 0.64 0 1.429 0 C 2.218 0 2.857 0.64 2.857 1.429 C 2.857 2.218 2.218 2.858 1.429 2.858 C 0.64 2.858 0 2.218 0 1.429 Z"
                fill="rgba(255,255,255,0.4)"
              />
            </g>
            <g transform="translate(433.593 192.491)">
              <path
                d="M 0 1.429 C 0 0.64 0.64 0 1.429 0 C 2.218 0 2.857 0.64 2.857 1.429 C 2.857 2.218 2.218 2.858 1.429 2.858 C 0.64 2.858 0 2.218 0 1.429 Z"
                fill="rgba(255,255,255,0.4)"
              />
            </g>
            <g transform="translate(822.984 211.438)">
              <path
                d="M 0 1.429 C 0 0.64 0.64 0 1.429 0 C 2.218 0 2.857 0.64 2.857 1.429 C 2.857 2.218 2.218 2.858 1.429 2.858 C 0.64 2.858 0 2.218 0 1.429 Z"
                fill="rgba(255,255,255,0.4)"
              />
            </g>
            <g transform="translate(671.437 369.341)">
              <path
                d="M 0 1.429 C 0 0.64 0.64 0 1.429 0 C 2.218 0 2.857 0.64 2.857 1.429 C 2.857 2.218 2.218 2.858 1.429 2.858 C 0.64 2.858 0 2.218 0 1.429 Z"
                fill="rgba(255,255,255,0.4)"
              />
            </g>
            <g transform="translate(406.231 447.241)">
              <path
                d="M 0 1.429 C 0 0.64 0.64 0 1.429 0 C 2.218 0 2.857 0.64 2.857 1.429 C 2.857 2.218 2.218 2.858 1.429 2.858 C 0.64 2.858 0 2.218 0 1.429 Z"
                fill="rgba(255,255,255,0.4)"
              />
            </g>
            <g transform="translate(23.153 226.177)">
              <path
                d="M 0 1.429 C 0 0.64 0.64 0 1.429 0 C 2.218 0 2.857 0.64 2.857 1.429 C 2.857 2.218 2.218 2.858 1.429 2.858 C 0.64 2.858 0 2.218 0 1.429 Z"
                fill="rgba(255,255,255,0.4)"
              />
            </g>
            <g transform="translate(176.806 190.386)">
              <path
                d="M 0 1.429 C 0 0.64 0.64 0 1.429 0 C 2.218 0 2.857 0.64 2.857 1.429 C 2.857 2.218 2.218 2.858 1.429 2.858 C 0.64 2.858 0 2.218 0 1.429 Z"
                fill="rgba(255,255,255,0.4)"
              />
            </g>
            <g transform="translate(8.42 377.764)">
              <path
                d="M 0 1.429 C 0 0.64 0.64 0 1.429 0 C 2.218 0 2.857 0.64 2.857 1.429 C 2.857 2.218 2.218 2.858 1.429 2.858 C 0.64 2.858 0 2.218 0 1.429 Z"
                fill="rgba(255,255,255,0.4)"
              />
            </g>
            <g transform="translate(690.38 224.072)">
              <path
                d="M 0 1.429 C 0 0.64 0.64 0 1.429 0 C 2.218 0 2.857 0.64 2.857 1.429 C 2.857 2.218 2.218 2.858 1.429 2.858 C 0.64 2.858 0 2.218 0 1.429 Z"
                fill="rgba(255,255,255,0.4)"
              />
            </g>
            <g transform="translate(604.083 188.28)">
              <path
                d="M 0 1.429 C 0 0.64 0.64 0 1.429 0 C 2.218 0 2.857 0.64 2.857 1.429 C 2.857 2.218 2.218 2.858 1.429 2.858 C 0.64 2.858 0 2.218 0 1.429 Z"
                fill="rgba(255,255,255,0.4)"
              />
            </g>
            <g transform="translate(448.327 405.134)">
              <path
                d="M 0 1.429 C 0 0.64 0.64 0 1.429 0 C 2.218 0 2.857 0.64 2.857 1.429 C 2.857 2.218 2.218 2.858 1.429 2.858 C 0.64 2.858 0 2.218 0 1.429 Z"
                fill="rgba(255,255,255,0.4)"
              />
            </g>
            <g transform="translate(309.407 276.706)">
              <path
                d="M 0 1.429 C 0 0.64 0.64 0 1.429 0 C 2.218 0 2.857 0.64 2.857 1.429 C 2.857 2.218 2.218 2.858 1.429 2.858 C 0.64 2.858 0 2.218 0 1.429 Z"
                fill="rgba(255,255,255,0.4)"
              />
            </g>
            <g transform="translate(366.239 186.175)">
              <path
                d="M 0 1.429 C 0 0.64 0.64 0 1.429 0 C 2.218 0 2.857 0.64 2.857 1.429 C 2.857 2.218 2.218 2.858 1.429 2.858 C 0.64 2.858 0 2.218 0 1.429 Z"
                fill="rgba(255,255,255,0.4)"
              />
            </g>
            <g transform="translate(587.244 339.867)">
              <path
                d="M 0 1.429 C 0 0.64 0.64 0 1.429 0 C 2.218 0 2.857 0.64 2.857 1.429 C 2.857 2.218 2.218 2.858 1.429 2.858 C 0.64 2.858 0 2.218 0 1.429 Z"
                fill="rgba(255,255,255,0.4)"
              />
            </g>
            <g transform="translate(513.576 537.771)">
              <path
                d="M 0 1.429 C 0 0.64 0.64 0 1.429 0 C 2.218 0 2.857 0.64 2.857 1.429 C 2.857 2.218 2.218 2.858 1.429 2.858 C 0.64 2.858 0 2.218 0 1.429 Z"
                fill="rgba(255,255,255,0.4)"
              />
            </g>
            <path
              d="M 922.03 208.623 C 922.03 207.834 922.67 207.195 923.459 207.195 C 924.248 207.195 924.887 207.834 924.887 208.623 C 924.887 209.413 924.248 210.052 923.459 210.052 C 922.67 210.052 922.03 209.413 922.03 208.623 Z"
              fill="rgba(255,255,255,0.7)"
            />
            <path
              d="M 759.959 149.674 C 759.959 148.884 760.598 148.245 761.387 148.245 C 762.176 148.245 762.816 148.884 762.816 149.674 C 762.816 150.463 762.176 151.103 761.387 151.103 C 760.598 151.103 759.959 150.463 759.959 149.674 Z"
              fill="rgba(255,255,255,0.7)"
            />
            <path
              d="M 867.304 54.932 C 867.304 54.142 867.944 53.503 868.733 53.503 C 869.522 53.503 870.161 54.142 870.161 54.932 C 870.161 55.721 869.522 56.361 868.733 56.361 C 867.944 56.361 867.304 55.721 867.304 54.932 Z"
              fill="rgba(255,255,255,0.7)"
            />
            <path
              d="M 848.361 362.315 C 848.361 361.526 849.001 360.886 849.79 360.886 C 850.579 360.886 851.219 361.526 851.219 362.315 C 851.219 363.105 850.579 363.744 849.79 363.744 C 849.001 363.744 848.361 363.105 848.361 362.315 Z"
              fill="rgba(255,255,255,0.7)"
            />
            <path
              d="M 724.176 191.78 C 724.176 190.991 724.815 190.352 725.604 190.352 C 726.393 190.352 727.033 190.991 727.033 191.78 C 727.033 192.57 726.393 193.209 725.604 193.209 C 724.815 193.209 724.176 192.57 724.176 191.78 Z"
              fill="rgba(255,255,255,0.7)"
            />
            <path
              d="M 924.134 324.42 C 924.134 323.63 924.774 322.991 925.563 322.991 C 926.352 322.991 926.991 323.63 926.991 324.42 C 926.991 325.209 926.352 325.849 925.563 325.849 C 924.774 325.849 924.134 325.209 924.134 324.42 Z"
              fill="rgba(255,255,255,0.7)"
            />
            <path
              d="M 993.593 33.877 C 993.593 33.088 994.232 32.449 995.021 32.449 C 995.81 32.449 996.45 33.088 996.45 33.877 C 996.45 34.667 995.81 35.306 995.021 35.306 C 994.232 35.306 993.593 34.667 993.593 33.877 Z"
              fill="rgba(255,255,255,0.7)"
            />
            <path
              d="M 966.232 288.627 C 966.232 287.838 966.871 287.198 967.66 287.198 C 968.449 287.198 969.089 287.838 969.089 288.627 C 969.089 289.417 968.449 290.056 967.66 290.056 C 966.871 290.056 966.232 289.417 966.232 288.627 Z"
              fill="rgba(255,255,255,0.7)"
            />
            <path
              d="M 583.153 67.563 C 583.153 66.774 583.792 66.135 584.581 66.135 C 585.37 66.135 586.01 66.774 586.01 67.563 C 586.01 68.353 585.37 68.992 584.581 68.992 C 583.792 68.992 583.153 68.353 583.153 67.563 Z"
              fill="rgba(255,255,255,0.7)"
            />
            <path
              d="M 736.806 31.773 C 736.806 30.983 737.445 30.344 738.234 30.344 C 739.023 30.344 739.663 30.983 739.663 31.773 C 739.663 32.562 739.023 33.202 738.234 33.202 C 737.445 33.202 736.806 32.562 736.806 31.773 Z"
              fill="rgba(255,255,255,0.7)"
            />
            <path
              d="M 568.42 219.151 C 568.42 218.361 569.06 217.722 569.849 217.722 C 570.638 217.722 571.277 218.361 571.277 219.151 C 571.277 219.94 570.638 220.579 569.849 220.579 C 569.06 220.579 568.42 219.94 568.42 219.151 Z"
              fill="rgba(255,255,255,0.7)"
            />
            <path
              d="M 1008.327 246.521 C 1008.327 245.731 1008.967 245.092 1009.756 245.092 C 1010.545 245.092 1011.184 245.731 1011.184 246.521 C 1011.184 247.31 1010.545 247.95 1009.756 247.95 C 1008.967 247.95 1008.327 247.31 1008.327 246.521 Z"
              fill="rgba(255,255,255,0.7)"
            />
            <path
              d="M 869.407 118.092 C 869.407 117.303 870.047 116.664 870.836 116.664 C 871.625 116.664 872.264 117.303 872.264 118.092 C 872.264 118.882 871.625 119.521 870.836 119.521 C 870.047 119.521 869.407 118.882 869.407 118.092 Z"
              fill="rgba(255,255,255,0.7)"
            />
            <path
              d="M 926.239 27.562 C 926.239 26.772 926.878 26.133 927.667 26.133 C 928.456 26.133 929.096 26.772 929.096 27.562 C 929.096 28.351 928.456 28.99 927.667 28.99 C 926.878 28.99 926.239 28.351 926.239 27.562 Z"
              fill="rgba(255,255,255,0.7)"
            />
          </g>
        </g>
      </svg>