<svg width="32" height="32" viewBox="0 0 32 32" fill="none" xmlns="http://www.w3.org/2000/svg">
<g clip-path="url(#clip0_4006_387)">
<path fill-rule="evenodd" clip-rule="evenodd" d="M24.512 30.372C24.9414 30.676 25.4947 30.752 25.988 30.5653C26.4814 30.3773 26.844 29.956 26.9534 29.4453C28.112 24 30.9227 10.2173 31.9774 5.26395C32.0574 4.89062 31.924 4.50262 31.6307 4.25329C31.3374 4.00395 30.9307 3.93195 30.568 4.06662C24.9774 6.13595 7.76004 12.596 0.722709 15.2C0.276042 15.3653 -0.0146245 15.7946 4.21904e-05 16.2653C0.0160422 16.7373 0.333376 17.1466 0.790709 17.284C3.94671 18.228 8.08938 19.5413 8.08938 19.5413C8.08938 19.5413 10.0254 25.388 11.0347 28.3613C11.1614 28.7346 11.4534 29.028 11.8387 29.1293C12.2227 29.2293 12.6334 29.124 12.92 28.8533C14.5414 27.3226 17.048 24.956 17.048 24.956C17.048 24.956 21.8107 28.448 24.512 30.372ZM9.83204 18.8026L12.0707 26.1866L12.568 21.5106C12.568 21.5106 21.2174 13.7093 26.148 9.26262C26.292 9.13195 26.312 8.91329 26.192 8.75995C26.0734 8.60662 25.8547 8.57062 25.6907 8.67462C19.976 12.324 9.83204 18.8026 9.83204 18.8026Z" fill="url(#paint0_linear_4006_387)"/>
</g>
<defs>
<linearGradient id="paint0_linear_4006_387" x1="32" y1="4" x2="5.5" y2="27.5" gradientUnits="userSpaceOnUse">
<stop stop-color="#E7E7E7"/>
<stop offset="1" stop-color="#DFE2F5"/>
</linearGradient>
<clipPath id="clip0_4006_387">
<rect width="32" height="32" fill="white"/>
</clipPath>
</defs>
</svg>
